<svg width="16" height="16" viewBox="0 0 16 16" fill="none" xmlns="http://www.w3.org/2000/svg">
<path opacity="0.4" d="M3.55556 5.33464H12.4444V10.668H3.55556V5.33464ZM14.6667 8.0013C14.6667 8.73769 15.2636 9.33463 16 9.33463V12.0013C16 12.7377 15.4031 13.3346 14.6667 13.3346H1.33333C0.596944 13.3346 0 12.7377 0 12.0013V9.33463C0.736389 9.33463 1.33333 8.73769 1.33333 8.0013C1.33333 7.26491 0.736389 6.66797 0 6.66797V4.0013C0 3.26491 0.596944 2.66797 1.33333 2.66797H14.6667C15.4031 2.66797 16 3.26491 16 4.0013V6.66797C15.2636 6.66797 14.6667 7.26491 14.6667 8.0013ZM13.3333 5.11241C13.3333 4.74422 13.0349 4.44575 12.6667 4.44575H3.33333C2.96514 4.44575 2.66667 4.74422 2.66667 5.11241V10.8902C2.66667 11.2584 2.96514 11.5569 3.33333 11.5569H12.6667C13.0349 11.5569 13.3333 11.2584 13.3333 10.8902V5.11241Z" fill="white"/>
</svg>
