<svg width="19" height="19" viewBox="0 0 19 19" fill="none" xmlns="http://www.w3.org/2000/svg">
<path d="M17.9563 11.7831L16.3245 10.8407C16.4892 9.95201 16.4892 9.04032 16.3245 8.15162L17.9563 7.20928C18.144 7.10203 18.2283 6.87985 18.167 6.67299C17.7418 5.30929 17.0178 4.07583 16.0716 3.04922C15.9261 2.89216 15.6886 2.85386 15.5047 2.96111L13.8729 3.90345C13.1872 3.31353 12.3981 2.85769 11.5438 2.5589V0.678057C11.5438 0.463542 11.3944 0.275841 11.1838 0.229874C9.77792 -0.084238 8.3376 -0.0689155 7.00071 0.229874C6.79002 0.275841 6.64063 0.463542 6.64063 0.678057V2.56273C5.79023 2.86535 5.00112 3.32119 4.31161 3.90728L2.68359 2.96494C2.49589 2.85769 2.26222 2.89216 2.11666 3.05305C1.17049 4.07583 0.446503 5.30929 0.0213029 6.67683C-0.0438178 6.88368 0.0442866 7.10586 0.231987 7.21311L1.86384 8.15545C1.69912 9.04416 1.69912 9.95585 1.86384 10.8446L0.231987 11.7869C0.0442866 11.8941 -0.0399872 12.1163 0.0213029 12.3232C0.446503 13.6869 1.17049 14.9203 2.11666 15.947C2.26222 16.104 2.49972 16.1423 2.68359 16.0351L4.31544 15.0927C5.00112 15.6826 5.79023 16.1385 6.64446 16.4373V18.3219C6.64446 18.5365 6.79386 18.7242 7.00454 18.7701C8.41038 19.0842 9.8507 19.0689 11.1876 18.7701C11.3983 18.7242 11.5477 18.5365 11.5477 18.3219V16.4373C12.3981 16.1347 13.1872 15.6788 13.8767 15.0927L15.5085 16.0351C15.6962 16.1423 15.9299 16.1078 16.0755 15.947C17.0216 14.9242 17.7456 13.6907 18.1708 12.3232C18.2283 12.1125 18.144 11.8903 17.9563 11.7831ZM9.09223 12.5607C7.40293 12.5607 6.02773 11.1855 6.02773 9.49617C6.02773 7.80686 7.40293 6.43166 9.09223 6.43166C10.7815 6.43166 12.1567 7.80686 12.1567 9.49617C12.1567 11.1855 10.7815 12.5607 9.09223 12.5607Z" fill="#7C7F82"/>
</svg>
